<?xml version="1.0" standalone="no"?>
<!DOCTYPE svg PUBLIC "-//W3C//DTD SVG 20010904//EN"
 "http://www.w3.org/TR/2001/REC-SVG-20010904/DTD/svg10.dtd">
<svg version="1.0" xmlns="http://www.w3.org/2000/svg"
 width="1774.000000pt" height="887.000000pt" viewBox="0 0 1774.000000 887.000000"
 preserveAspectRatio="xMidYMid meet">

<g transform="translate(0.000000,887.000000) scale(0.100000,-0.100000)"
fill="#000000" stroke="none">
<path d="M0 4435 l0 -4435 8870 0 8870 0 0 4435 0 4435 -8870 0 -8870 0 0
-4435z m11728 1238 l3 -133 -136 0 -135 0 0 135 0 136 133 -3 132 -3 3 -132z
m-6723 -362 c91 -23 190 -79 248 -140 65 -68 101 -136 128 -239 18 -70 19
-114 19 -614 l0 -538 -135 0 -134 0 -3 528 -3 527 -33 67 c-34 70 -71 105
-150 141 -46 22 -57 22 -554 25 l-508 3 0 -646 0 -645 -135 0 -135 0 0 776 0
775 673 -4 c493 -3 685 -7 722 -16z m2130 8 c246 -27 390 -142 446 -355 19
-73 21 -110 22 -454 2 -394 -2 -438 -45 -523 -30 -60 -92 -121 -153 -151 -113
-55 -142 -57 -794 -54 -592 3 -596 4 -658 26 -120 45 -216 139 -249 245 -22
70 -30 260 -14 339 23 119 84 204 180 253 95 48 99 48 800 54 l665 6 -3 80
c-6 158 -74 243 -220 274 -36 7 -271 11 -742 11 l-690 0 0 130 0 130 680 0
c411 0 718 -4 775 -11z m2338 -12 c127 -37 226 -116 270 -215 51 -112 60 -313
21 -427 -24 -70 -111 -155 -186 -183 -104 -39 -163 -42 -807 -42 l-624 0 6
-83 c4 -46 14 -105 24 -132 20 -61 100 -144 158 -165 33 -12 162 -15 748 -18
l707 -3 0 -129 0 -130 -728 0 c-698 0 -732 1 -808 20 -181 47 -301 170 -350
362 -21 83 -32 573 -15 713 31 261 159 402 403 444 29 5 294 8 588 7 467 -2
542 -4 593 -19z m1735 -104 l-3 -128 -346 -5 -345 -5 -60 -30 c-51 -27 -62
-38 -89 -89 l-30 -60 -3 -553 -3 -553 -134 0 -135 0 0 563 c0 614 2 631 59
745 65 128 184 207 351 231 30 5 209 9 398 10 l343 1 -3 -127z m520 -650 l2
-773 -135 0 -135 0 0 775 0 776 133 -3 132 -3 3 -772z m789 530 c126 -137 249
-269 272 -295 24 -27 47 -48 50 -48 4 0 130 133 281 295 l274 295 169 0 169 0
-29 -34 c-28 -34 -370 -405 -575 -625 -60 -63 -108 -119 -108 -124 0 -5 76
-88 168 -185 93 -98 253 -267 357 -377 l188 -200 -166 -3 -166 -2 -144 147
c-79 82 -204 212 -277 291 -74 78 -137 142 -141 142 -5 0 -285 -293 -489 -511
l-65 -70 -166 3 -167 3 132 141 c489 525 571 614 571 623 0 6 -63 79 -140 163
-270 294 -550 593 -557 596 -5 2 -8 8 -8 13 0 5 73 9 168 9 l169 0 230 -247z
m1683 -975 c108 -55 132 -201 48 -287 -59 -60 -139 -77 -216 -46 -75 32 -115
90 -115 170 0 143 150 230 283 163z m-8641 -936 c39 -20 60 -59 36 -69 -9 -3
-25 5 -40 21 -29 32 -74 34 -100 6 -17 -19 -17 -21 0 -40 10 -11 23 -20 29
-20 29 0 89 -23 107 -41 29 -29 25 -83 -7 -108 -55 -43 -172 -20 -187 38 -8
31 23 36 47 8 35 -41 104 -42 119 -3 11 29 -4 45 -61 61 -89 26 -119 65 -91
116 11 22 62 48 94 49 11 0 35 -8 54 -18z m2465 4 c33 -14 66 -50 66 -72 0
-19 -24 -11 -59 19 -78 65 -176 -3 -157 -108 8 -42 48 -75 92 -75 46 0 63 8
79 41 l15 28 -42 3 c-31 2 -44 8 -46 21 -3 15 5 17 62 17 l66 0 0 -36 c0 -29
-8 -44 -40 -76 -40 -40 -41 -40 -101 -36 -56 4 -65 8 -95 41 -30 32 -34 43
-34 92 0 73 21 112 73 136 50 22 77 24 121 5z m4730 0 c34 -14 66 -50 66 -73
0 -22 -27 -14 -58 17 -70 70 -175 5 -159 -98 13 -77 110 -112 161 -57 38 41
76 27 43 -15 -37 -48 -121 -65 -177 -37 -41 21 -70 74 -70 129 0 66 22 105 73
129 50 22 77 24 121 5z m-8116 -125 c29 -71 52 -134 52 -140 0 -6 -9 -11 -19
-11 -13 0 -23 11 -31 35 l-12 35 -67 0 -67 0 -13 -35 c-8 -24 -19 -35 -32 -35
-10 0 -19 3 -19 8 0 4 23 67 52 140 48 122 54 132 78 132 24 0 30 -10 78 -129z
m302 -11 c0 -133 -1 -140 -20 -140 -19 0 -20 7 -20 140 0 133 1 140 20 140 19
0 20 -7 20 -140z m1080 120 c0 -17 -7 -20 -45 -20 l-45 0 0 -120 c0 -113 -1
-120 -20 -120 -19 0 -20 7 -20 120 l0 120 -32 2 c-18 0 -40 1 -48 2 -8 1 -16
9 -18 19 -3 15 7 17 112 17 109 0 116 -1 116 -20z m384 -1 c37 -29 37 -90 0
-124 l-26 -24 32 -56 31 -55 -24 0 c-20 0 -32 11 -56 55 -28 50 -34 55 -66 55
l-35 0 0 -55 c0 -48 -2 -55 -20 -55 -19 0 -20 7 -20 140 l0 140 79 0 c64 0 83
-4 105 -21z m426 -100 c66 -160 66 -159 41 -159 -14 0 -25 11 -35 35 -15 35
-15 35 -80 35 l-65 0 -12 -35 c-10 -27 -19 -35 -37 -35 -15 0 -22 5 -19 13 2
6 28 70 57 140 49 118 55 128 77 125 21 -3 32 -20 73 -119z m428 104 c-2 -14
-13 -18 -43 -18 l-40 0 -5 -120 c-5 -115 -6 -120 -27 -123 -23 -3 -23 -2 -23
117 l0 120 -42 3 c-31 2 -44 8 -46 21 -3 15 7 17 113 17 106 0 116 -2 113 -17z
m382 -3 c0 -18 -7 -20 -70 -20 l-70 0 0 -40 0 -40 65 0 c50 0 65 -3 65 -15 0
-10 -16 -15 -62 -17 l-63 -3 -3 -42 -3 -43 70 0 c64 0 71 -2 71 -20 0 -19 -7
-20 -90 -20 l-90 0 0 140 0 140 90 0 c83 0 90 -1 90 -20z m709 -42 l39 -61 29
47 c43 74 48 78 71 74 20 -3 18 -8 -28 -83 -45 -72 -50 -85 -50 -138 0 -55 -1
-58 -22 -55 -20 3 -22 8 -19 50 2 42 -3 58 -48 132 -28 46 -51 87 -51 90 0 3
9 6 20 6 14 0 33 -19 59 -62z m992 49 c45 -35 50 -88 10 -127 l-28 -29 28 -50
c35 -60 35 -63 7 -59 -15 2 -33 21 -53 55 -26 46 -34 53 -62 53 l-33 0 0 -55
c0 -48 -2 -55 -20 -55 -19 0 -20 7 -20 140 l0 140 78 0 c45 -1 84 -6 93 -13z
m427 -4 c-3 -15 -16 -19 -71 -21 l-67 -3 0 -39 0 -40 60 0 c47 0 60 -3 60 -15
0 -12 -13 -15 -60 -15 l-60 0 0 -45 0 -45 69 0 c71 0 86 -6 72 -28 -5 -9 -34
-12 -97 -10 l-89 3 -3 138 -3 137 96 0 c86 0 96 -2 93 -17z m400 -113 c29 -72
52 -135 52 -140 0 -6 -9 -10 -19 -10 -13 0 -24 11 -32 35 l-13 35 -66 0 -66 0
-13 -35 c-8 -24 -19 -35 -32 -35 -10 0 -19 3 -19 8 0 4 23 67 52 139 49 122
55 133 79 133 24 0 30 -10 77 -130z m292 10 l0 -120 71 0 c62 0 70 -2 67 -17
-3 -15 -17 -18 -91 -21 l-87 -3 0 141 c0 133 1 140 20 140 19 0 20 -7 20 -120z
m614 -20 c0 -132 0 -135 -22 -138 -22 -3 -22 -2 -22 138 0 140 0 141 22 138
21 -3 22 -7 22 -138z m314 46 c23 -52 42 -100 42 -107 0 -24 17 5 60 104 39
91 44 97 71 97 l29 0 0 -141 c0 -140 0 -140 -22 -137 -22 3 -23 9 -28 97 l-5
94 -40 -91 c-25 -58 -46 -92 -55 -92 -10 0 -30 32 -55 88 -21 48 -42 91 -47
97 -4 5 -8 -37 -8 -93 0 -95 -1 -102 -20 -102 -19 0 -20 7 -20 140 l0 140 28
0 c26 0 32 -8 70 -94z m597 68 c29 -31 31 -62 10 -104 -16 -31 -33 -38 -105
-42 l-45 -3 -3 -52 c-3 -45 -6 -53 -23 -53 -18 0 -19 8 -19 140 l0 140 80 0
c75 0 83 -2 105 -26z m362 -109 c29 -71 53 -133 53 -137 0 -5 -9 -8 -20 -8
-13 0 -25 12 -34 35 -15 35 -15 35 -80 35 -66 0 -66 0 -80 -35 -10 -24 -22
-35 -35 -35 -12 0 -21 2 -21 4 0 2 21 55 46 117 25 63 50 124 55 137 7 18 15
23 36 20 24 -3 32 -15 80 -133z m881 118 c-2 -13 -15 -19 -45 -21 l-42 -3 -3
-117 c-3 -113 -4 -117 -25 -120 -23 -3 -23 -2 -23 117 l0 120 -42 3 c-31 2
-44 8 -46 21 -3 15 7 17 113 17 106 0 116 -2 113 -17z m232 -227 c0 -23 -30
-41 -48 -30 -23 15 -25 29 -7 48 12 12 21 13 36 6 10 -6 19 -17 19 -24z
m-4726 8 c8 -21 -11 -44 -36 -44 -21 0 -33 22 -24 45 7 20 52 19 60 -1z"/>
<path d="M6134 4441 c-73 -9 -120 -35 -151 -81 -18 -26 -23 -47 -23 -101 0
-104 24 -149 105 -192 39 -22 50 -22 549 -25 335 -2 526 1 560 8 62 13 122 58
144 109 9 23 17 82 20 159 l5 122 -509 0 c-280 0 -538 2 -574 4 -36 3 -93 1
-126 -3z"/>
<path d="M8328 5056 c-112 -31 -166 -113 -170 -262 l-3 -89 615 0 615 0 45 22
c59 29 83 71 83 142 0 83 -33 134 -113 177 -33 18 -68 19 -530 21 -377 2 -506
-1 -542 -11z"/>
<path d="M4533 3065 l-21 -55 49 0 49 0 -20 50 c-11 28 -20 53 -20 55 0 3 -4
5 -9 5 -4 0 -17 -25 -28 -55z"/>
<path d="M6260 3095 l0 -45 55 0 c50 0 57 3 67 26 19 41 1 58 -66 62 l-56 3 0
-46z"/>
<path d="M6735 3078 c-9 -24 -19 -49 -22 -55 -4 -9 8 -13 41 -13 25 0 46 4 46
9 0 13 -38 101 -44 101 -2 0 -12 -19 -21 -42z"/>
<path d="M9217 3143 c-4 -3 -7 -26 -7 -50 l0 -43 48 0 c55 0 72 12 72 52 0 21
-6 31 -26 38 -29 11 -78 13 -87 3z"/>
<path d="M10063 3065 l-21 -55 49 0 49 0 -16 38 c-9 20 -18 45 -21 55 -9 28
-17 20 -40 -38z"/>
<path d="M11843 3134 c-2 -7 -3 -29 -1 -50 3 -35 6 -39 32 -42 66 -8 105 24
87 71 -8 21 -17 25 -62 28 -32 3 -53 0 -56 -7z"/>
<path d="M12242 3076 c-12 -32 -22 -60 -22 -62 0 -2 20 -4 45 -4 52 0 53 4 21
74 l-22 50 -22 -58z"/>
</g>
</svg>
